<?xml version="1.0" encoding="UTF-8"?>
<!DOCTYPE svg PUBLIC "-//W3C//DTD SVG 1.1//EN" "http://www.w3.org/Graphics/SVG/1.1/DTD/svg11.dtd">
<svg xmlns="http://www.w3.org/2000/svg" version="1.1" width="236px" height="66px" style="shape-rendering:geometricPrecision; text-rendering:geometricPrecision; image-rendering:optimizeQuality; fill-rule:evenodd; clip-rule:evenodd" xmlns:xlink="http://www.w3.org/1999/xlink">
<g><path style="opacity:0.188" fill="#96a785" d="M 225.5,0.5 C 227.38,0.229113 228.713,0.895779 229.5,2.5C 227.847,2.3404 226.514,1.67373 225.5,0.5 Z"/></g>
<g><path style="opacity:0.986" fill="#1b1b1b" d="M 81.5,3.5 C 81.1667,4.83333 80.8333,6.16667 80.5,7.5C 78.7367,11.0525 76.07,13.7191 72.5,15.5C 71.5987,16.2905 70.9321,17.2905 70.5,18.5C 67.47,22.1913 64.47,25.858 61.5,29.5C 61.1667,29.5 60.8333,29.5 60.5,29.5C 59.5222,29.811 58.8555,30.4777 58.5,31.5C 59.6119,32.2652 60.2786,33.2652 60.5,34.5C 57.2328,38.4824 53.2328,40.1491 48.5,39.5C 48.4003,36.8915 49.0669,34.5582 50.5,32.5C 52.2624,31.7377 53.2624,30.4044 53.5,28.5C 56.2302,27.4891 56.8968,25.8225 55.5,23.5C 55.8333,23.5 56.1667,23.5 56.5,23.5C 60.3951,22.6069 63.0618,20.2736 64.5,16.5C 66.1667,12.8333 68.8333,10.1667 72.5,8.5C 74.1667,7.5 75.5,6.16667 76.5,4.5C 77.7452,1.07995 79.4119,0.74662 81.5,3.5 Z"/></g>
<g><path style="opacity:0.345" fill="#7b7b7b" d="M 76.5,4.5 C 75.5,6.16667 74.1667,7.5 72.5,8.5C 72.8333,6.16667 74.1667,4.83333 76.5,4.5 Z"/></g>
<g><path style="opacity:0.016" fill="#858585" d="M 81.5,3.5 C 82.8528,5.12842 82.5195,6.46175 80.5,7.5C 80.8333,6.16667 81.1667,4.83333 81.5,3.5 Z"/></g>
<g><path style="opacity:0.749" fill="#92a671" d="M 108.5,2.5 C 107.513,4.55115 106.18,6.21781 104.5,7.5C 104.67,4.796 106.003,3.12933 108.5,2.5 Z"/></g>
<g><path style="opacity:0.714" fill="#4d4d4d" d="M 41.5,16.5 C 39.4352,16.5172 37.4352,16.8505 35.5,17.5C 36.5188,15.8985 38.0188,14.8985 40,14.5C 41.0299,14.8361 41.5299,15.5028 41.5,16.5 Z"/></g>
<g><path style="opacity:0.522" fill="#757575" d="M 96.5,23.5 C 96.2062,21.7245 96.0395,19.7245 96,17.5C 94.3775,16.9011 92.8775,16.2344 91.5,15.5C 93.4862,14.2388 95.3195,14.5722 97,16.5C 97.7033,18.9291 97.5366,21.2625 96.5,23.5 Z"/></g>
<g><path style="opacity:0.553" fill="#6a6a6a" d="M 89.5,15.5 C 88.4863,16.6737 87.153,17.3404 85.5,17.5C 86.287,15.8958 87.6203,15.2291 89.5,15.5 Z"/></g>
<g><path style="opacity:0.994" fill="#131313" d="M 89.5,15.5 C 90.1667,15.5 90.8333,15.5 91.5,15.5C 92.8775,16.2344 94.3775,16.9011 96,17.5C 96.0395,19.7245 96.2062,21.7245 96.5,23.5C 99.1272,22.9084 101.794,22.5751 104.5,22.5C 109.366,22.4791 109.366,23.4791 104.5,25.5C 100.138,26.3725 95.8043,27.3725 91.5,28.5C 91.5654,28.0618 91.3988,27.7284 91,27.5C 89.1978,28.7893 88.0312,30.4559 87.5,32.5C 87.1667,32.5 86.8333,32.5 86.5,32.5C 84.5,32.5 83.5,33.5 83.5,35.5C 83.1667,35.5 82.8333,35.5 82.5,35.5C 79.733,35.8702 77.733,37.2036 76.5,39.5C 74.6203,39.7709 73.287,39.1042 72.5,37.5C 71.7814,35.2362 71.448,32.9029 71.5,30.5C 71.5,30.1667 71.5,29.8333 71.5,29.5C 72.1667,29.5 72.5,29.1667 72.5,28.5C 74.8333,27.5 76.5,25.8333 77.5,23.5C 80.5331,21.984 83.1997,19.984 85.5,17.5C 87.153,17.3404 88.4863,16.6737 89.5,15.5 Z"/></g>
<g><path style="opacity:0.004" fill="#929292" d="M 72.5,15.5 C 72.7148,17.1788 72.0481,18.1788 70.5,18.5C 70.9321,17.2905 71.5987,16.2905 72.5,15.5 Z"/></g>
<g><path style="opacity:0.859" fill="#4b4b4b" d="M 41.5,16.5 C 43.7964,18.5058 45.463,21.0058 46.5,24C 46.3613,25.301 45.6946,26.1344 44.5,26.5C 45.9816,23.6675 45.315,22.6675 42.5,23.5C 42.5,22.5 42.5,21.5 42.5,20.5C 41.5,20.5 40.5,20.5 39.5,20.5C 40.2625,19.7321 41.2625,19.2321 42.5,19C 41.7476,18.3292 41.4142,17.4959 41.5,16.5 Z"/></g>
<g><path style="opacity:1" fill="#e2e2e2" d="M 39.5,20.5 C 40.5,20.5 41.5,20.5 42.5,20.5C 42.5,21.5 42.5,22.5 42.5,23.5C 37.0196,26.9069 31.3529,29.7402 25.5,32C 29.4591,27.1983 34.1258,23.365 39.5,20.5 Z"/></g>
<g><path style="opacity:0.475" fill="#4a4a4a" d="M 85.5,17.5 C 83.1997,19.984 80.5331,21.984 77.5,23.5C 79.4426,20.5293 82.1092,18.5293 85.5,17.5 Z"/></g>
<g><path style="opacity:1" fill="#686868" d="M 87.5,20.5 C 88.3478,19.375 89.3478,19.375 90.5,20.5C 89.6522,21.625 88.6522,21.625 87.5,20.5 Z"/></g>
<g><path style="opacity:0.757" fill="#4a4a4a" d="M 33.5,18.5 C 29.4656,22.5355 25.1323,26.2022 20.5,29.5C 23.9481,24.7131 28.2814,21.0464 33.5,18.5 Z"/></g>
<g><path style="opacity:0.722" fill="#5b5b5b" d="M 64.5,16.5 C 63.0618,20.2736 60.3951,22.6069 56.5,23.5C 59.1413,21.1956 61.808,18.8623 64.5,16.5 Z"/></g>
<g><path style="opacity:1" fill="#dedede" d="M 87.5,20.5 C 88.6522,21.625 89.6522,21.625 90.5,20.5C 91.265,19.3398 92.265,18.3398 93.5,17.5C 93.8333,18 94.1667,18.5 94.5,19C 92.8782,23.1269 89.8782,24.9603 85.5,24.5C 85.2291,22.6203 85.8958,21.287 87.5,20.5 Z"/></g>
<g><path style="opacity:0.999" fill="#181818" d="M 41.5,16.5 C 41.4142,17.4959 41.7476,18.3292 42.5,19C 41.2625,19.2321 40.2625,19.7321 39.5,20.5C 34.1258,23.365 29.4591,27.1983 25.5,32C 31.3529,29.7402 37.0196,26.9069 42.5,23.5C 45.315,22.6675 45.9816,23.6675 44.5,26.5C 43.0937,26.9731 42.427,27.9731 42.5,29.5C 40.8656,30.2066 39.5323,31.3732 38.5,33C 40.4122,33.2793 41.7456,32.4459 42.5,30.5C 43.1667,30.5 43.5,30.1667 43.5,29.5C 44.8333,29.1667 46.1667,28.8333 47.5,28.5C 48.2389,28.369 48.9056,28.5357 49.5,29C 47.6763,29.66 46.343,30.8267 45.5,32.5C 45.1583,33.3382 44.4916,33.6716 43.5,33.5C 41.2198,34.6401 38.8864,35.8068 36.5,37C 35.7476,37.6708 35.4142,38.5041 35.5,39.5C 35.1667,39.5 34.8333,39.5 34.5,39.5C 31.3257,40.0102 28.9923,41.6769 27.5,44.5C 26.1667,46.5 24.5,48.1667 22.5,49.5C 20.8333,50.5 19.5,51.8333 18.5,53.5C 18.5,54.1667 18.1667,54.5 17.5,54.5C 14.8333,56.5 12.5,58.8333 10.5,61.5C 9.47257,63.1942 8.13924,64.5275 6.5,65.5C 4.83333,65.5 3.16667,65.5 1.5,65.5C 1.5,65.1667 1.5,64.8333 1.5,64.5C 0.437952,62.7659 0.437952,61.0992 1.5,59.5C 2.16667,58.1667 3.16667,57.1667 4.5,56.5C 5.83333,55.8333 6.83333,54.8333 7.5,53.5C 9.91806,50.4531 12.9181,48.1198 16.5,46.5C 18.0269,46.573 19.0269,45.9063 19.5,44.5C 19.8417,43.6618 20.5084,43.3284 21.5,43.5C 25.4287,42.5692 28.0953,40.2359 29.5,36.5C 29.631,35.7611 29.4643,35.0944 29,34.5C 26.6745,37.0108 23.8411,38.3441 20.5,38.5C 20.0805,36.9064 19.4138,35.4064 18.5,34C 19.4138,32.5936 20.0805,31.0936 20.5,29.5C 25.1323,26.2022 29.4656,22.5355 33.5,18.5C 33.8417,17.6618 34.5084,17.3284 35.5,17.5C 37.4352,16.8505 39.4352,16.5172 41.5,16.5 Z"/></g>
<g><path style="opacity:1" fill="#d4d4d4" d="M 81.5,24.5 C 83.0783,25.0656 84.4116,26.0656 85.5,27.5C 75.7388,34.9696 74.4054,33.9696 81.5,24.5 Z"/></g>
<g><path style="opacity:0.671" fill="#505050" d="M 55.5,23.5 C 56.8968,25.8225 56.2302,27.4891 53.5,28.5C 53.1667,27.1667 52.8333,27.1667 52.5,28.5C 51.8333,28.5 51.5,28.8333 51.5,29.5C 50.8333,29.5 50.5,29.8333 50.5,30.5C 48.8333,31.1667 47.1667,31.8333 45.5,32.5C 46.343,30.8267 47.6763,29.66 49.5,29C 48.9056,28.5357 48.2389,28.369 47.5,28.5C 49.7937,26.347 52.4604,24.6803 55.5,23.5 Z"/></g>
<g><path style="opacity:0.884" fill="#404040" d="M 77.5,23.5 C 76.5,25.8333 74.8333,27.5 72.5,28.5C 71.8333,28.5 71.5,28.8333 71.5,29.5C 67.7252,30.8867 64.0585,32.5534 60.5,34.5C 60.2786,33.2652 59.6119,32.2652 58.5,31.5C 58.8555,30.4777 59.5222,29.811 60.5,29.5C 60.8333,30.8333 61.1667,30.8333 61.5,29.5C 66.6246,26.9374 71.9579,24.9374 77.5,23.5 Z"/></g>
<g><path style="opacity:1" fill="#2e4d09" d="M 225.5,0.5 C 226.514,1.67373 227.847,2.3404 229.5,2.5C 229.461,3.75618 229.961,4.75618 231,5.5C 231.667,22.5 231.667,39.5 231,56.5C 230.667,56.8333 230.333,57.1667 230,57.5C 229.667,55.8333 229.333,54.1667 229,52.5C 227.108,53.6174 226.275,55.2841 226.5,57.5C 224.833,57.5 223.167,57.5 221.5,57.5C 220.251,60.1888 220.251,59.1888 221.5,54.5C 223.113,53.1619 223.613,51.4952 223,49.5C 221.013,48.782 219.179,47.782 217.5,46.5C 219.167,45.8333 220.833,45.1667 222.5,44.5C 222.043,43.7025 221.376,43.3691 220.5,43.5C 219.359,42.661 218.026,41.9943 216.5,41.5C 215.735,42.6119 214.735,43.2786 213.5,43.5C 212.209,43.7373 211.209,43.404 210.5,42.5C 209.412,41.0002 208.079,39.6669 206.5,38.5C 204.604,37.5344 202.604,37.2011 200.5,37.5C 200.5,38.5 200.5,39.5 200.5,40.5C 199.833,41.8333 199.167,43.1667 198.5,44.5C 200.102,47.5342 199.769,50.2009 197.5,52.5C 196.795,49.7719 196.128,46.9386 195.5,44C 192.947,43.1487 190.614,43.482 188.5,45C 190.107,44.9813 191.774,44.8146 193.5,44.5C 193.5,45.5 193.5,46.5 193.5,47.5C 191.708,47.366 190.042,47.6993 188.5,48.5C 187.655,47.3285 186.989,45.9952 186.5,44.5C 186.53,43.5028 186.03,42.8361 185,42.5C 183.467,43.6953 181.967,43.6953 180.5,42.5C 179.513,45.7683 179.18,49.1016 179.5,52.5C 177.952,52.1788 177.285,51.1788 177.5,49.5C 175.856,49.7135 174.356,49.3802 173,48.5C 172.51,49.7932 172.343,51.1266 172.5,52.5C 170.61,52.7035 169.11,52.0368 168,50.5C 167.022,47.3307 167.522,44.4973 169.5,42C 172.097,41.719 174.43,41.5523 176.5,41.5C 171.556,38.1519 167.889,39.1519 165.5,44.5C 164.213,43.4715 163.046,43.8048 162,45.5C 160.394,43.016 158.894,43.016 157.5,45.5C 155.95,43.6672 154.95,41.5006 154.5,39C 152.934,38.235 151.601,38.4017 150.5,39.5C 149.883,39.6107 149.383,39.944 149,40.5C 148.747,43.8822 147.914,47.0489 146.5,50C 146.557,52.2089 147.557,53.7089 149.5,54.5C 150.058,55.7899 151.058,56.6232 152.5,57C 156.763,58.2051 160.93,59.7051 165,61.5C 166.841,60.875 168.674,60.7083 170.5,61C 168.285,62.0438 165.952,62.7105 163.5,63C 157.175,63.4995 150.842,63.6662 144.5,63.5C 141.527,61.8532 138.86,59.8532 136.5,57.5C 136.5,57.1667 136.5,56.8333 136.5,56.5C 137.87,50.9281 137.703,45.2614 136,39.5C 134.103,37.095 131.936,36.4284 129.5,37.5C 123.491,37.6662 117.491,37.4995 111.5,37C 110.058,36.6232 109.058,35.7899 108.5,34.5C 107.343,32.322 106.01,30.322 104.5,28.5C 104.5,27.5 104.5,26.5 104.5,25.5C 109.366,23.4791 109.366,22.4791 104.5,22.5C 104.5,17.5 104.5,12.5 104.5,7.5C 106.18,6.21781 107.513,4.55115 108.5,2.5C 108.611,1.88258 108.944,1.38258 109.5,1C 148.165,0.500012 186.832,0.333346 225.5,0.5 Z"/></g>
<g><path style="opacity:1" fill="#abdb60" d="M 216.5,15.5 C 223.576,15.8565 223.909,16.8565 217.5,18.5C 219.386,19.4063 221.22,20.4063 223,21.5C 223.72,23.1124 223.554,24.6124 222.5,26C 219.901,26.769 217.401,26.6023 215,25.5C 214.312,24.6683 214.479,24.0016 215.5,23.5C 223.318,24.4594 223.485,23.4594 216,20.5C 215.36,18.735 215.527,17.0683 216.5,15.5 Z"/></g>
<g><path style="opacity:1" fill="#a6d95d" d="M 130.5,15.5 C 138.94,15.0075 141.273,18.5075 137.5,26C 128.889,26.971 126.556,23.471 130.5,15.5 Z"/></g>
<g><path style="opacity:1" fill="#addc60" d="M 155.5,15.5 C 160.836,14.1845 163.503,16.1845 163.5,21.5C 160.753,21.1866 158.086,21.52 155.5,22.5C 155.709,23.086 156.043,23.586 156.5,24C 158.657,24.0781 160.657,24.2448 162.5,24.5C 162.291,25.086 161.957,25.586 161.5,26C 156.515,27.7569 153.849,26.0903 153.5,21C 153.395,18.8218 154.061,16.9885 155.5,15.5 Z"/></g>
<g><path style="opacity:1" fill="#d2f86e" d="M 150.5,24.5 C 150.611,25.1174 150.944,25.6174 151.5,26C 150.251,26.7401 149.251,26.5735 148.5,25.5C 148.334,20.8215 148.501,16.1548 149,11.5C 149.175,16.0195 149.675,20.3528 150.5,24.5 Z"/></g>
<g><path style="opacity:1" fill="#adde61" d="M 118.5,11.5 C 121.908,10.828 124.575,11.828 126.5,14.5C 126.167,14.8333 125.833,15.1667 125.5,15.5C 122.959,12.8997 120.459,12.8997 118,15.5C 117.333,18.1667 117.333,20.8333 118,23.5C 120.854,26.0164 123.521,25.6831 126,22.5C 126.507,23.9961 126.007,25.1627 124.5,26C 116.238,27.3655 113.072,23.8655 115,15.5C 116.376,14.2949 117.542,12.9616 118.5,11.5 Z"/></g>
<g><path style="opacity:1" fill="#c1e46f" d="M 185.5,15.5 C 186.787,16.8714 187.453,18.7047 187.5,21C 187.167,22.8333 186.833,24.6667 186.5,26.5C 185.511,22.8927 185.177,19.226 185.5,15.5 Z"/></g>
<g><path style="opacity:1" fill="#b8e45e" d="M 203.5,15.5 C 206.259,15.5484 209.092,15.8817 212,16.5C 212.824,19.8823 212.657,23.2156 211.5,26.5C 210.516,23.5719 210.183,20.5719 210.5,17.5C 208.856,17.2865 207.356,17.6198 206,18.5C 205.818,21.2263 205.318,23.8929 204.5,26.5C 203.511,22.8927 203.177,19.226 203.5,15.5 Z"/></g>
<g><path style="opacity:1" fill="#abdd60" d="M 192.5,15.5 C 200.618,15.3821 202.618,18.8821 198.5,26C 189.412,26.4258 187.412,22.9258 192.5,15.5 Z"/></g>
<g><path style="opacity:1" fill="#334c0c" d="M 192.5,17.5 C 198.704,17.3137 200.037,19.8137 196.5,25C 195.216,25.6838 194.049,25.5171 193,24.5C 192.503,22.1902 192.337,19.8568 192.5,17.5 Z"/></g>
<g><path style="opacity:1" fill="#b3e164" d="M 177.5,12.5 C 179.048,12.8212 179.715,13.8212 179.5,15.5C 183.5,15.8333 183.5,16.1667 179.5,16.5C 179.336,19.1873 179.503,21.854 180,24.5C 181.135,24.727 182.302,25.0604 183.5,25.5C 181.647,26.7596 179.814,26.7596 178,25.5C 177.667,22.8333 177.333,20.1667 177,17.5C 176.5,17 176,16.5 175.5,16C 176.973,15.2904 177.64,14.1238 177.5,12.5 Z"/></g>
<g><path style="opacity:1" fill="#243d08" d="M 156.5,17.5 C 157.978,17.238 159.311,17.5713 160.5,18.5C 158.926,19.6309 157.259,19.7975 155.5,19C 156.056,18.6174 156.389,18.1174 156.5,17.5 Z"/></g>
<g><path style="opacity:1" fill="#32510c" d="M 131.5,17.5 C 133.167,17.5 134.833,17.5 136.5,17.5C 136.663,19.8568 136.497,22.1902 136,24.5C 134.667,25.8333 133.333,25.8333 132,24.5C 131.503,22.1902 131.337,19.8568 131.5,17.5 Z"/></g>
<g><path style="opacity:1" fill="#6da63a" d="M 150.5,24.5 C 149.675,20.3528 149.175,16.0195 149,11.5C 148.501,16.1548 148.334,20.8215 148.5,25.5C 147.513,20.6946 147.179,15.6946 147.5,10.5C 148.5,10.5 149.5,10.5 150.5,10.5C 150.5,15.1667 150.5,19.8333 150.5,24.5 Z"/></g>
<g><path style="opacity:1" fill="#afdf62" d="M 167.5,15.5 C 169.792,15.2436 171.959,15.5769 174,16.5C 174.688,17.3317 174.521,17.9984 173.5,18.5C 170.196,16.6447 168.196,17.478 167.5,21C 168.162,25.504 170.162,26.3374 173.5,23.5C 174.711,24.2739 174.711,25.1072 173.5,26C 166.495,27.3236 163.995,24.4902 166,17.5C 166.717,16.9558 167.217,16.2891 167.5,15.5 Z"/></g>
<g><path style="opacity:1" fill="#b3e161" d="M 142.5,11.5 C 143.167,15.8333 143.833,20.1667 144.5,24.5C 145.281,26.6631 144.447,26.9964 142,25.5C 141.185,20.6478 141.352,15.9811 142.5,11.5 Z"/></g>
<g><path style="opacity:1" fill="#90b84c" d="M 185.5,10.5 C 187.048,10.8212 187.715,11.8212 187.5,13.5C 184.752,13.5983 184.086,12.5983 185.5,10.5 Z"/></g>
<g><path style="opacity:1" fill="#7ca01f" d="M 142.5,11.5 C 142.56,10.9569 142.893,10.6236 143.5,10.5C 144.493,15.1196 144.827,19.7863 144.5,24.5C 143.833,20.1667 143.167,15.8333 142.5,11.5 Z"/></g>
<g><path style="opacity:0.082" fill="#787878" d="M 44.5,26.5 C 44.4431,27.609 44.1098,28.609 43.5,29.5C 43.1667,29.5 42.8333,29.5 42.5,29.5C 42.427,27.9731 43.0937,26.9731 44.5,26.5 Z"/></g>
<g><path style="opacity:0.62" fill="#747474" d="M 33.5,32.5 C 33.5106,30.3141 34.5106,29.4808 36.5,30C 35.6266,31.045 34.6266,31.8783 33.5,32.5 Z"/></g>
<g><path style="opacity:0.012" fill="#6f6f6f" d="M 42.5,29.5 C 42.5,29.8333 42.5,30.1667 42.5,30.5C 41.7456,32.4459 40.4122,33.2793 38.5,33C 39.5323,31.3732 40.8656,30.2066 42.5,29.5 Z"/></g>
<g><path style="opacity:0.51" fill="#737373" d="M 52.5,28.5 C 52.8333,28.5 53.1667,28.5 53.5,28.5C 53.2624,30.4044 52.2624,31.7377 50.5,32.5C 50.5,31.8333 50.5,31.1667 50.5,30.5C 51.1667,30.5 51.5,30.1667 51.5,29.5C 52.1667,29.5 52.5,29.1667 52.5,28.5 Z"/></g>
<g><path style="opacity:0.027" fill="#898989" d="M 91.5,28.5 C 90.5,30.1667 89.1667,31.5 87.5,32.5C 88.0312,30.4559 89.1978,28.7893 91,27.5C 91.3988,27.7284 91.5654,28.0618 91.5,28.5 Z"/></g>
<g><path style="opacity:0.424" fill="#747474" d="M 71.5,30.5 C 71.448,32.9029 71.7814,35.2362 72.5,37.5C 71.0069,36.6879 70.3402,35.3545 70.5,33.5C 70.5195,32.2739 70.8529,31.2739 71.5,30.5 Z"/></g>
<g><path style="opacity:0.118" fill="#6a6a6a" d="M 86.5,32.5 C 85.8333,33.8333 84.8333,34.8333 83.5,35.5C 83.5,33.5 84.5,32.5 86.5,32.5 Z"/></g>
<g><path style="opacity:0.004" fill="#a7b695" d="M 104.5,28.5 C 106.01,30.322 107.343,32.322 108.5,34.5C 105.708,33.6082 104.375,31.6082 104.5,28.5 Z"/></g>
<g><path style="opacity:0.263" fill="#7e7e7e" d="M 20.5,29.5 C 20.0805,31.0936 19.4138,32.5936 18.5,34C 19.4138,35.4064 20.0805,36.9064 20.5,38.5C 15.4113,35.6253 15.4113,32.6253 20.5,29.5 Z"/></g>
<g><path style="opacity:0.424" fill="#8b8b8b" d="M 50.5,32.5 C 49.0669,34.5582 48.4003,36.8915 48.5,39.5C 46.8846,36.5983 47.5512,34.265 50.5,32.5 Z"/></g>
<g><path style="opacity:0.357" fill="#6b6b6b" d="M 82.5,35.5 C 80.8525,37.3264 78.8525,38.6597 76.5,39.5C 77.733,37.2036 79.733,35.8702 82.5,35.5 Z"/></g>
<g><path style="opacity:0.027" fill="#636363" d="M 43.5,33.5 C 41.2297,35.9748 38.563,37.9748 35.5,39.5C 35.4142,38.5041 35.7476,37.6708 36.5,37C 38.8864,35.8068 41.2198,34.6401 43.5,33.5 Z"/></g>
<g><path style="opacity:0.706" fill="#575757" d="M 29.5,36.5 C 28.0953,40.2359 25.4287,42.5692 21.5,43.5C 24.1413,41.1956 26.808,38.8623 29.5,36.5 Z"/></g>
<g><path style="opacity:0.024" fill="#646464" d="M 34.5,39.5 C 32.4504,41.5475 30.117,43.2141 27.5,44.5C 28.9923,41.6769 31.3257,40.0102 34.5,39.5 Z"/></g>
<g><path style="opacity:0.459" fill="#707070" d="M 19.5,44.5 C 19.0269,45.9063 18.0269,46.573 16.5,46.5C 16.9731,45.0937 17.9731,44.427 19.5,44.5 Z"/></g>
<g><path style="opacity:0.237" fill="#a1b08d" d="M 129.5,37.5 C 131.936,36.4284 134.103,37.095 136,39.5C 137.703,45.2614 137.87,50.9281 136.5,56.5C 136.771,51.0873 136.271,45.7539 135,40.5C 133.512,38.84 131.679,37.84 129.5,37.5 Z"/></g>
<g><path style="opacity:0.027" fill="#808080" d="M 22.5,49.5 C 22.1667,51.8333 20.8333,53.1667 18.5,53.5C 19.5,51.8333 20.8333,50.5 22.5,49.5 Z"/></g>
<g><path style="opacity:1" fill="#121b08" d="M 150.5,39.5 C 151.822,39.33 152.989,39.6634 154,40.5C 154.253,43.2004 154.253,45.867 154,48.5C 154.333,48.8333 154.667,49.1667 155,49.5C 155.419,48.3279 156.085,47.3279 157,46.5C 157.651,48.235 157.485,49.9017 156.5,51.5C 157.167,52.1667 157.833,52.8333 158.5,53.5C 155.667,53.5109 152.667,53.8442 149.5,54.5C 147.557,53.7089 146.557,52.2089 146.5,50C 147.914,47.0489 148.747,43.8822 149,40.5C 149.383,39.944 149.883,39.6107 150.5,39.5 Z"/></g>
<g><path style="opacity:1" fill="#304a0e" d="M 149.5,47.5 C 151.682,48.2997 153.349,49.7997 154.5,52C 152.527,52.4955 150.527,52.6621 148.5,52.5C 148.366,50.7085 148.699,49.0418 149.5,47.5 Z"/></g>
<g><path style="opacity:0.175" fill="#808080" d="M 7.5,53.5 C 6.83333,54.8333 5.83333,55.8333 4.5,56.5C 4.5,54.5 5.5,53.5 7.5,53.5 Z"/></g>
<g><path style="opacity:1" fill="#c9c9c9" d="M 14.5,50.5 C 15.7736,51.1894 15.7736,52.0228 14.5,53C 11.5372,54.9606 8.87058,57.294 6.5,60C 5.83333,60.6667 5.16667,60.6667 4.5,60C 7.72891,56.6014 11.0622,53.4347 14.5,50.5 Z"/></g>
<g><path style="opacity:0.999" fill="#2f4b0d" d="M 229.5,2.5 C 230.458,2.9528 231.292,3.61947 232,4.5C 232.667,22.8333 232.667,41.1667 232,59.5C 231.044,60.5786 230.211,61.7453 229.5,63C 201.255,64.4833 172.922,64.9833 144.5,64.5C 144.5,64.1667 144.5,63.8333 144.5,63.5C 150.842,63.6662 157.175,63.4995 163.5,63C 165.952,62.7105 168.285,62.0438 170.5,61C 168.674,60.7083 166.841,60.875 165,61.5C 160.93,59.7051 156.763,58.2051 152.5,57C 151.058,56.6232 150.058,55.7899 149.5,54.5C 152.667,53.8442 155.667,53.5109 158.5,53.5C 157.833,52.8333 157.167,52.1667 156.5,51.5C 157.485,49.9017 157.651,48.235 157,46.5C 156.085,47.3279 155.419,48.3279 155,49.5C 154.667,49.1667 154.333,48.8333 154,48.5C 154.253,45.867 154.253,43.2004 154,40.5C 152.989,39.6634 151.822,39.33 150.5,39.5C 151.601,38.4017 152.934,38.235 154.5,39C 154.95,41.5006 155.95,43.6672 157.5,45.5C 158.894,43.016 160.394,43.016 162,45.5C 163.046,43.8048 164.213,43.4715 165.5,44.5C 165.222,51.9012 168.555,54.9012 175.5,53.5C 176.583,52.635 176.749,51.635 176,50.5C 175.184,51.8228 174.017,52.4894 172.5,52.5C 172.343,51.1266 172.51,49.7932 173,48.5C 174.356,49.3802 175.856,49.7135 177.5,49.5C 177.285,51.1788 177.952,52.1788 179.5,52.5C 179.783,53.2891 180.283,53.9558 181,54.5C 181.333,51.8333 181.667,49.1667 182,46.5C 183.47,45.7334 184.97,45.0668 186.5,44.5C 186.989,45.9952 187.655,47.3285 188.5,48.5C 186.857,50.7081 187.19,52.5415 189.5,54C 191.926,53.9521 194.259,54.1188 196.5,54.5C 197.298,54.0431 197.631,53.3764 197.5,52.5C 199.769,50.2009 200.102,47.5342 198.5,44.5C 200.104,47.4032 201.104,50.7366 201.5,54.5C 202.487,51.2317 202.82,47.8984 202.5,44.5C 206.5,44.1667 206.5,43.8333 202.5,43.5C 202.5,42.5 202.5,41.5 202.5,40.5C 203.675,40.719 204.675,40.3857 205.5,39.5C 203.603,38.3482 201.936,38.6815 200.5,40.5C 200.5,39.5 200.5,38.5 200.5,37.5C 202.604,37.2011 204.604,37.5344 206.5,38.5C 208.079,39.6669 209.412,41.0002 210.5,42.5C 208.9,41.488 207.566,41.988 206.5,44C 208.188,46.8245 209.021,49.9912 209,53.5C 210.494,54.7472 211.994,54.7472 213.5,53.5C 212.311,52.5713 210.978,52.238 209.5,52.5C 209.337,50.1432 209.503,47.8098 210,45.5C 211.302,44.9152 212.469,44.2485 213.5,43.5C 214.735,43.2786 215.735,42.6119 216.5,41.5C 218.026,41.9943 219.359,42.661 220.5,43.5C 215.413,43.2845 214.413,45.1178 217.5,49C 218.793,49.49 220.127,49.6567 221.5,49.5C 221.5,50.5 221.5,51.5 221.5,52.5C 219.22,52.2537 217.22,52.2537 215.5,52.5C 217.023,54.2825 219.023,54.9492 221.5,54.5C 220.251,59.1888 220.251,60.1888 221.5,57.5C 223.167,57.5 224.833,57.5 226.5,57.5C 226.275,55.2841 227.108,53.6174 229,52.5C 229.333,54.1667 229.667,55.8333 230,57.5C 230.333,57.1667 230.667,56.8333 231,56.5C 231.667,39.5 231.667,22.5 231,5.5C 229.961,4.75618 229.461,3.75618 229.5,2.5 Z"/></g>
<g><path style="opacity:1" fill="#0e1807" d="M 197.5,52.5 C 197.631,53.3764 197.298,54.0431 196.5,54.5C 194.259,54.1188 191.926,53.9521 189.5,54C 187.19,52.5415 186.857,50.7081 188.5,48.5C 190.042,47.6993 191.708,47.366 193.5,47.5C 193.5,46.5 193.5,45.5 193.5,44.5C 191.774,44.8146 190.107,44.9813 188.5,45C 190.614,43.482 192.947,43.1487 195.5,44C 196.128,46.9386 196.795,49.7719 197.5,52.5 Z"/></g>
<g><path style="opacity:1" fill="#314a0d" d="M 189.5,49.5 C 191.288,49.2148 192.955,49.5481 194.5,50.5C 193.332,52.2174 191.665,52.8841 189.5,52.5C 189.5,51.5 189.5,50.5 189.5,49.5 Z"/></g>
<g><path style="opacity:1" fill="#0d1806" d="M 220.5,43.5 C 221.376,43.3691 222.043,43.7025 222.5,44.5C 220.833,45.1667 219.167,45.8333 217.5,46.5C 219.179,47.782 221.013,48.782 223,49.5C 223.613,51.4952 223.113,53.1619 221.5,54.5C 219.023,54.9492 217.023,54.2825 215.5,52.5C 217.22,52.2537 219.22,52.2537 221.5,52.5C 221.5,51.5 221.5,50.5 221.5,49.5C 220.127,49.6567 218.793,49.49 217.5,49C 214.413,45.1178 215.413,43.2845 220.5,43.5 Z"/></g>
<g><path style="opacity:1" fill="#0c1406" d="M 172.5,52.5 C 174.017,52.4894 175.184,51.8228 176,50.5C 176.749,51.635 176.583,52.635 175.5,53.5C 168.555,54.9012 165.222,51.9012 165.5,44.5C 167.889,39.1519 171.556,38.1519 176.5,41.5C 174.43,41.5523 172.097,41.719 169.5,42C 167.522,44.4973 167.022,47.3307 168,50.5C 169.11,52.0368 170.61,52.7035 172.5,52.5 Z"/></g>
<g><path style="opacity:1" fill="#070d04" d="M 210.5,42.5 C 211.209,43.404 212.209,43.7373 213.5,43.5C 212.469,44.2485 211.302,44.9152 210,45.5C 209.503,47.8098 209.337,50.1432 209.5,52.5C 210.978,52.238 212.311,52.5713 213.5,53.5C 211.994,54.7472 210.494,54.7472 209,53.5C 209.021,49.9912 208.188,46.8245 206.5,44C 207.566,41.988 208.9,41.488 210.5,42.5 Z"/></g>
<g><path style="opacity:1" fill="#16200a" d="M 186.5,44.5 C 184.97,45.0668 183.47,45.7334 182,46.5C 181.667,49.1667 181.333,51.8333 181,54.5C 180.283,53.9558 179.783,53.2891 179.5,52.5C 179.18,49.1016 179.513,45.7683 180.5,42.5C 181.967,43.6953 183.467,43.6953 185,42.5C 186.03,42.8361 186.53,43.5028 186.5,44.5 Z"/></g>
<g><path style="opacity:1" fill="#0d1607" d="M 198.5,44.5 C 199.167,43.1667 199.833,41.8333 200.5,40.5C 201.936,38.6815 203.603,38.3482 205.5,39.5C 204.675,40.3857 203.675,40.719 202.5,40.5C 202.5,41.5 202.5,42.5 202.5,43.5C 206.5,43.8333 206.5,44.1667 202.5,44.5C 202.82,47.8984 202.487,51.2317 201.5,54.5C 201.104,50.7366 200.104,47.4032 198.5,44.5 Z"/></g>
<g><path style="opacity:0.035" fill="#6a6a6a" d="M 17.5,54.5 C 16.1667,57.8333 13.8333,60.1667 10.5,61.5C 12.5,58.8333 14.8333,56.5 17.5,54.5 Z"/></g>
<g><path style="opacity:0.318" fill="#9d9d9d" d="M -0.5,59.5 C 0.166667,59.5 0.833333,59.5 1.5,59.5C 0.437952,61.0992 0.437952,62.7659 1.5,64.5C 0.833333,64.1667 0.166667,63.8333 -0.5,63.5C -0.5,62.1667 -0.5,60.8333 -0.5,59.5 Z"/></g>
<g><path style="opacity:0.145" fill="#82916d" d="M 136.5,57.5 C 138.86,59.8532 141.527,61.8532 144.5,63.5C 144.5,63.8333 144.5,64.1667 144.5,64.5C 140.626,63.6307 137.959,61.2974 136.5,57.5 Z"/></g>
</svg>
